<svg xmlns="http://www.w3.org/2000/svg" width="524.67004" height="400.49112" viewBox="0 0 524.67004 400.49112" xmlns:xlink="http://www.w3.org/1999/xlink"><path d="M252.76565,148.861c2.86976-3.16131,7.60931-2.23744,10.76275-.00619,4.05844,2.87158,5.21907,8.11556,5.81777,12.76395,1.01352,7.86914,1.31341,18.99289,10.23692,22.28274,4.12282,1.51997,8.84227,.26478,12.32454-2.20329,3.80362-2.69582,6.17619-6.84264,7.76535-11.1404,1.92404-5.2034,3.03773-10.76951,3.98177-16.22258,.9654-5.57644,1.59813-11.21294,1.88228-16.86528,.27799-5.5299,.09705-11.02347-.12279-16.54977-.17165-4.31476-.23712-8.84561,1.22036-12.97151,1.472-4.167,4.89447-7.3365,9.39465-7.75455,4.36807-.40578,8.86681,1.43616,12.02712,4.40895,7.58288,7.13297,7.93962,18.7777,9.63441,28.34164,.89044,5.0249,2.19211,10.10963,4.9207,14.4814,2.24409,3.59549,5.36287,6.6098,8.95517,8.84618,7.24549,4.51067,16.47836,5.827,24.51844,2.72806,7.84962-3.02553,14.1682-9.63939,16.9023-17.58902,.67522-1.96325,1.09231-3.99133,1.30383-6.05478,.09834-.95936-1.40236-.95249-1.5,0-.89895,8.76944-6.52803,16.71146-14.24183,20.87077-7.93725,4.27979-17.54933,3.73678-25.30418-.70008-3.81245-2.18125-7.12878-5.25788-9.43314-9.00978-2.79459-4.55009-3.9913-9.85369-4.86189-15.06098-1.57239-9.405-2.28567-20.2034-9.33431-27.4246-5.46655-5.60038-15.52605-7.84785-21.40106-1.60977-6.0495,6.42335-4.23607,16.77036-4.04289,24.74402,.28291,11.67769-.92109,23.38256-3.58993,34.755-1.1617,4.95023-2.49801,10.05492-5.4137,14.29959-2.66461,3.87915-7.01959,6.88593-11.86898,6.83807-4.83612-.04773-8.23405-3.60209-9.95096-7.83966-1.81134-4.47065-1.93003-9.29889-2.55681-14.01808-.57538-4.33215-1.62376-9.12611-4.87253-12.29657-2.52633-2.46544-6.27409-4.05242-9.82974-3.4854-1.70851,.27246-3.22356,1.1026-4.38429,2.38125-.64757,.71336,.41014,1.77727,1.06066,1.06066h0Z" fill="#6c63ff"/><g></g><path d="M386.8104,178.33546h-34.22061c-.86273,0-1.56471-.70199-1.56471-1.56472s.70199-1.56439,1.56471-1.56439h34.22061c.86273,0,1.56439,.70166,1.56439,1.56439s-.70166,1.56471-1.56439,1.56471Z" fill="#e6e6e6"/><path d="M414.8104,240.33546h-34.22061c-.86273,0-1.56471-.70199-1.56471-1.56472s.70199-1.56439,1.56471-1.56439h34.22061c.86273,0,1.56439,.70166,1.56439,1.56439s-.70166,1.56471-1.56439,1.56471Z" fill="#e6e6e6"/><path d="M258.8104,53.33546h-34.22061c-.86273,0-1.56471-.70199-1.56471-1.56472s.70199-1.56439,1.56471-1.56439h34.22061c.86273,0,1.56439,.70166,1.56439,1.56439s-.70166,1.56471-1.56439,1.56471Z" fill="#e6e6e6"/><path d="M0,398.59438c0,.66003,.53003,1.19,1.19006,1.19H523.48004c.65997,0,1.19-.52997,1.19-1.19,0-.65997-.53003-1.19-1.19-1.19H1.19006c-.66003,0-1.19006,.53003-1.19006,1.19Z" fill="#ccc"/><path d="M397.24803,222.17969H242.14794c-.55228,0-1-.44772-1-1V73.17969c0-.55273,.44775-1,1-1s1,.44727,1,1v60.38821c0,47.83437,38.77742,86.61179,86.61179,86.61179h67.48831c.55225,0,1,.44727,1,1s-.44775,1-1,1Z" fill="#e6e6e6"/><path d="M274.8104,162.69908h-34.22061c-.86273,0-1.56471-.70199-1.56471-1.56472s.70199-1.56439,1.56471-1.56439h34.22061c.86273,0,1.56439,.70166,1.56439,1.56439s-.70166,1.56471-1.56439,1.56471Z" fill="#e6e6e6"/><g><path id="uuid-5c502ea6-9d8d-47ac-9944-b5b4822d592a-210" d="M240.87964,167.15159c5.42719-1.79229,8.9016-6.04538,7.76041-9.49909s-6.46521-4.79971-11.8941-3.00605c-2.17845,.68675-4.16075,1.8852-5.78107,3.49511l-22.89933,7.88442,3.92898,10.66712,22.15755-8.90516c2.26117,.32821,4.56806,.11001,6.72756-.63636Z" fill="#ffb6b6"/><path id="uuid-ca9917be-6801-4c2d-b7fb-204f6c00dfb7-211" d="M123.16708,228.28894c.18529,5.71248,3.28296,10.24731,6.9184,10.12879s6.43132-4.84502,6.2452-10.55951c-.04304-2.28372-.63235-4.52394-1.71865-6.5332l-1.09073-24.19408-11.34266,.75385,2.2795,23.77105c-.95392,2.07621-1.39663,4.35071-1.29105,6.63311Z" fill="#ffb6b6"/><g><polygon points="149.35347 391.31135 159.47793 391.31037 162.07196 352.00001 149.35144 352.25951 149.35347 391.31135" fill="#ffb6b6"/><path d="M184.04113,391.08169h0c.31524,.53092,.48158,2.2445,.48158,2.86192h0c0,1.89778-1.53843,3.43628-3.43628,3.43628h-31.35425c-1.29466,0-2.34425-1.04953-2.34425-2.34425v-1.30538s-1.55106-3.92334,1.6423-8.75907c0,0,3.96893,3.78645,9.89953-2.14415l1.74888-3.16823,12.65949,9.25851,7.01697,.86372c1.53517,.18895,2.89624-.02932,3.68591,1.30063h.00012Z" fill="#2f2e41"/></g><g><polygon points="173.35347 391.31135 183.47793 391.31037 186.07196 352.00001 173.35144 352.25951 173.35347 391.31135" fill="#ffb6b6"/><path d="M208.04113,391.08169h0c.31524,.53092,.48158,2.2445,.48158,2.86192h0c0,1.89778-1.53843,3.43628-3.43628,3.43628h-31.35425c-1.29466,0-2.34425-1.04953-2.34425-2.34425v-1.30538s-1.55106-3.92334,1.6423-8.75907c0,0,3.96893,3.78645,9.89953-2.14415l1.74888-3.16823,12.65949,9.25851,7.01697,.86372c1.53517,.18895,2.89624-.02932,3.68591,1.30063h.00012Z" fill="#2f2e41"/></g><circle cx="155.24496" cy="83.62152" r="14.89321" fill="#ffb6b6"/><polygon points="134.63817 207.5 141.63817 307.5 145.63817 374.5 164.63817 373.5 162.63817 300.5 166.63817 255.5 172.63817 373.5 187.76022 373.5 193.63817 208.5 161.13817 204 134.63817 207.5" fill="#2f2e41"/><path d="M160.63817,95.5c-4.23587,4.07751-14.02512,1.3739-19,0-2.73837-.75623-4.39096-1.53564-5-3-.42337-1.01794-.1828-1.98315-1-4-.47864-1.1814-.73108-1.26953-1-2-.74966-2.03625,.29163-3.85046,1-6,1.47809-4.48523-.28665-4.98889,1-8,1.93433-4.52686,7.19617-6.36865,9-7,3.36783-1.17883,6.17654-1.0542,7-1,5.27545,.34729,8.80237,3.05432,10,4,2.42767,1.91699,3.61844,3.9447,6,8,2.07245,3.52893,2.22351,4.88318,2,6-.34058,1.70178-1.32202,1.70813-2,4-.76959,2.60156,.1058,3.90906-1,5-.7475,.73743-1.44217,.43066-3,1-2.14407,.78357-3.20242,2.2323-4,3Z" fill="#2f2e41"/><path d="M172.63817,110.5s-15-19-34-12l-6.15354,12-2.0559,1.94608c-8.62416,8.16349-12.63663,20.07364-10.71041,31.7915l8.91985,54.26242s-1,21,6,27c0,0,10-19,34-10s29,4,29,4l-8-57-17-52Z" fill="#2f2e41"/><path d="M167.63817,113.5l-5,11,19,64,52-19-7-12-25,7s-19-56-34-51Z" fill="#2f2e41"/><polygon points="132.13817 214 121.13817 214 119.13817 134 132.13817 161 132.13817 214" fill="#2f2e41"/></g><circle cx="252.63817" cy="148.5" r="4.5" fill="#3f3d56"/><circle cx="282.63817" cy="183.5" r="4.5" fill="#3f3d56"/><circle cx="316.63817" cy="99.5" r="4.5" fill="#3f3d56"/><circle cx="366.63817" cy="159.5" r="4.5" fill="#3f3d56"/><circle cx="395.63817" cy="135.5" r="4.5" fill="#3f3d56"/><g><path d="M387.06526,40.02396l8.22992,3.89856c-3.37555-4.71082-6.28418-12.06805-7.84137-17.92249-2.63654,5.45343-6.88672,12.1261-11.09375,16.11194l8.69812-2.23767c-5.35974,26.26794-25.5191,45.12573-48.60437,45.12573l-.32679,.9488c24.11316,0,45.46577-18.59639,50.93824-45.92488Z" fill="#3f3d56"/><path d="M362.18605,0h52c2.20557,0,4,1.79443,4,4s-1.79443,4-4,4h-52c-2.20557,0-4-1.79443-4-4S359.98048,0,362.18605,0Z" fill="#6c63ff"/></g><path d="M316.26889,63.85272c-5.92014-1.41814-12.24545-.13464-17.30614,3.2084-5.30668,3.50554-8.82031,9.11903-10.0096,15.3379-2.45363,12.83018,5.04261,25.64732,16.88993,30.75384,12.45438,5.36818,27.2702,1.76616,36.31447-8.19696,4.48285-4.93828,7.28456-11.18568,8.12807-17.79225,.83098-6.50841-.11676-14.01752-4.05771-19.44941-3.90912-5.38802-10.41844-7.19611-16.705-8.07909-6.09979-.85675-14.19186-1.22914-17.49008,5.22723-.62885,1.23099-.92441,2.5575-.85473,3.93811,.04848,.96063,1.54878,.96642,1.5,0-.15235-3.01869,1.86017-5.54107,4.43979-6.89779,2.98966-1.57238,6.5957-1.43922,9.85614-1.08876,5.88621,.6327,12.56907,1.76138,16.81389,6.28219,4.22843,4.50336,5.49595,11.36601,5.23347,17.34385-.27397,6.23955-2.42378,12.38083-6.19084,17.371-7.43366,9.84727-20.43969,14.53216-32.40476,11.35104-11.65835-3.09958-11.81078-10.01835-11.6183-22.27078,.10268-6.53654-6.07181-16.82518-1.03063-21.08477,4.9357-4.17047,11.77663-6.02045,18.0933-4.50732,.93824,.22475,1.33861-1.22128,.39876-1.44642h0Z" fill="#6c63ff"/></svg>